<?xml version="1.0" standalone="no"?>
<!DOCTYPE svg PUBLIC "-//W3C//DTD SVG 20010904//EN"
 "http://www.w3.org/TR/2001/REC-SVG-20010904/DTD/svg10.dtd">
<svg version="1.0" xmlns="http://www.w3.org/2000/svg"
 width="260.000000pt" height="260.000000pt" viewBox="0 0 260.000000 260.000000"
 preserveAspectRatio="xMidYMid meet">
<metadata>
Created by potrace 1.11, written by Peter Selinger 2001-2013
</metadata>
<g transform="translate(0.000000,260.000000) scale(0.100000,-0.100000)"
fill="#000000" stroke="none">
<path d="M5 2588 c-3 -7 -4 -591 -3 -1298 l3 -1285 1295 0 1295 0 0 1295 0
1295 -1293 3 c-1029 2 -1294 0 -1297 -10z m888 -773 c58 -143 140 -345 182
-450 259 -638 345 -854 345 -866 0 -14 -87 -11 -93 4 -124 303 -173 420 -187
457 l-18 45 -345 3 -344 2 -61 -147 c-34 -82 -81 -197 -106 -258 l-44 -110
-46 -3 c-29 -2 -46 1 -46 8 0 6 20 59 44 118 24 59 74 181 111 272 37 91 101
248 142 350 41 102 103 255 138 340 92 227 196 483 202 498 3 7 9 10 14 5 4
-4 55 -125 112 -268z m1007 234 c156 -19 251 -84 311 -211 29 -64 34 -85 37
-173 5 -138 -16 -196 -104 -283 -52 -51 -60 -64 -46 -69 123 -41 202 -104 254
-205 32 -61 33 -67 33 -183 0 -115 -1 -123 -32 -186 -43 -86 -108 -151 -196
-194 -97 -47 -161 -55 -434 -55 l-233 0 0 778 c0 428 3 782 7 785 10 11 310 8
403 -4z"/>
<path d="M767 1838 c-3 -7 -40 -98 -82 -203 -191 -471 -214 -529 -209 -537 7
-11 591 -10 599 1 3 5 -38 117 -91 248 -53 131 -119 294 -146 363 -52 131 -62
150 -71 128z"/>
<path d="M1585 1959 c-3 -8 -4 -149 -3 -314 l3 -300 170 1 c151 0 175 3 218
22 75 33 123 77 154 139 23 48 27 70 28 143 0 77 -3 92 -33 153 -25 50 -45 75
-79 98 -69 48 -122 60 -295 66 -130 5 -158 4 -163 -8z"/>
<path d="M1587 1253 c-4 -3 -7 -157 -7 -340 l0 -335 223 4 c203 4 227 6 280
27 70 28 153 105 186 174 49 101 36 234 -32 333 -26 39 -49 57 -108 87 -65 32
-88 38 -184 47 -125 11 -348 13 -358 3z"/>
</g>
</svg>
